<svg width="152" height="200" viewBox="0 0 152 200" fill="none" xmlns="http://www.w3.org/2000/svg">
<path fill-rule="evenodd" clip-rule="evenodd" d="M94.64 78.94C90.93 62.06 115.2 58.41 118.11 73.18C121.4 89.91 97.81 93.31 94.64 78.94ZM34.68 78.94C30.96 62.06 55.24 58.41 58.15 73.18C59.76 81.4 54.81 86.71 49.15 87.72C41.5 89.09 35.96 84.78 34.68 78.94ZM22.41 69.32L22.51 124.3C29.08 136.72 27.25 139.69 41.23 151.57C65.17 171.94 103.78 166.77 122.44 140C126.27 134.5 127.04 130.26 130.24 124.25C130.61 113.56 130.33 102.42 130.34 91.68C130.34 80.71 131.29 70.51 128.58 60.35C123.82 52.1 116.41 43.92 102.09 46.22C91.27 47.97 83.62 56.97 82.38 68.13L70.31 67C69.72 56.14 59.07 45.65 45.63 45.93C32.77 46.2 22.83 56.46 22.41 69.32Z" fill="#FEFEFE"/>
<path fill-rule="evenodd" clip-rule="evenodd" d="M4.44 116.32C4.89 96.48 2.23999 70.62 7.78999 53.83C11.1019 43.5402 16.6864 34.1274 24.1298 26.2887C31.5731 18.45 40.6847 12.3863 50.7895 8.54687C60.8943 4.70739 71.7334 3.19046 82.504 4.10846C93.2746 5.02645 103.701 8.35583 113.01 13.85C117.89 16.69 128.9 25.09 130.25 28.58L134.32 33C138.24 38.44 140.47 42.12 143.2 48.86C146.78 57.69 148.34 66.95 148.32 76.69C148.27 98.47 147.78 120.89 148.31 142.59C148.59 154.51 148.33 166.72 148.32 178.67C148.32 197.67 147.44 195.86 128.84 195.86L56.02 195.85L23.9 195.82C8.81999 195.82 4.4 198.45 4.45 182.42C4.52 160.46 4.02 138.25 4.44 116.32ZM63.2 1.76C39.62 6.3 22.74 18.8 11.5 37.32C-2.26 59.98 0.989998 83.84 0.989998 114.17V179.38C0.989998 187.66 0.120006 192.96 5.49001 197.05C10.98 201.24 32.54 199.4 41.63 199.4L134.09 199.3C154.13 199.34 151.76 192.6 151.76 174.13V86.43C151.76 60.43 148.96 41.25 129 21.83C114.12 7.35 90.22 -3.44 63.2 1.76Z" fill="#000205"/>
<path fill-rule="evenodd" clip-rule="evenodd" d="M130.25 124.25C127.05 130.25 126.27 134.5 122.44 140C103.78 166.78 65.17 171.94 41.23 151.57C27.25 139.69 29.08 136.72 22.51 124.3C21.28 153.73 47.41 177.93 76.38 177.93C106.07 177.93 131.48 153.08 130.25 124.25Z" fill="#FFC700"/>
<path fill-rule="evenodd" clip-rule="evenodd" d="M70.53 94.61C60.55 97.48 53.13 105.11 52.37 116.66C57.04 118.42 60.41 119.79 65.87 120.94C68.83 121.56 70.47 121.62 74.1 121.68C77.54 121.72 80.77 121.38 84.04 121.35C91.29 119.95 94.2 118.49 100.39 116.3C99.57 104.9 91.79 97.28 82.22 94.6C78.3894 93.5592 74.3506 93.5592 70.52 94.6V94.61H70.53Z" fill="#F3930E"/>
<path fill-rule="evenodd" clip-rule="evenodd" d="M34.68 78.94C35.96 84.78 41.5 89.09 49.16 87.72C54.81 86.71 59.76 81.4 58.15 73.18C55.25 58.41 30.96 62.06 34.68 78.94ZM94.64 78.94C97.8 93.31 121.4 89.91 118.11 73.18C115.21 58.41 90.93 62.06 94.64 78.94Z" fill="#000205"/>
<path fill-rule="evenodd" clip-rule="evenodd" d="M84.04 121.35C80.77 121.38 77.54 121.72 74.1 121.68C70.46 121.62 68.83 121.57 65.88 120.94C60.41 119.79 57.04 118.42 52.38 116.66C52.29 121.07 52.68 124.16 54.36 127.98C55.0129 129.489 55.8637 130.905 56.89 132.19C57.94 133.57 59.05 134.98 60.73 135.94C65.62 142.48 79.16 143.97 87.92 139.24C95.32 135.24 100.24 128.29 100.4 116.3C94.2 118.49 91.29 119.94 84.04 121.35Z" fill="#CE6707"/>
<path fill-rule="evenodd" clip-rule="evenodd" d="M70.37 91.84L70.53 94.61C74.3605 93.5687 78.3995 93.5687 82.23 94.61L82.39 92.54L82.38 68.14C83.62 56.97 91.28 47.97 102.09 46.22C116.41 43.92 123.82 52.1 128.59 60.35C131.29 70.51 130.33 80.71 130.33 91.68C130.33 102.42 130.61 113.56 130.25 124.25C131.47 153.08 106.07 177.92 76.38 177.92C47.4 177.92 21.28 153.72 22.51 124.3L22.41 69.32C22.83 56.46 32.77 46.2 45.63 45.93C59.07 45.65 69.73 56.13 70.31 67L70.37 91.84ZM4.44 116.32C4.02 138.24 4.52 160.46 4.44 182.42C4.39 198.44 8.81999 195.82 23.9 195.82L56.02 195.85L128.84 195.86C147.44 195.86 148.31 197.66 148.33 178.67C148.33 166.72 148.59 154.51 148.31 142.59C147.78 120.89 148.27 98.46 148.32 76.69C148.34 66.95 146.78 57.69 143.2 48.85C140.47 42.12 138.24 38.45 134.32 33L130.25 28.58C128.9 25.09 117.89 16.69 113.01 13.84C103.7 8.34806 93.2732 5.02103 82.5027 4.10533C71.7322 3.18962 60.8937 4.70871 50.79 8.55008C40.6862 12.3915 31.5761 18.4567 24.1344 26.2965C16.6927 34.1363 11.11 43.5499 7.8 53.84C2.25 70.62 4.89 96.48 4.44 116.32Z" fill="#085AA3"/>
</svg>
